#!OML:ASF F:\twosubjects\two\wednesday\Session 1\rory1.ASF
:FULLY-SPECIFIED
:DEGREES
152
root 7.73485 17.9643 -7.19516 2.47715 -6.14419 2.45895
lowerback 5.22001 0.206958 -0.888298
upperback 2.15236 0.240408 0.92526
thorax -0.721868 0.111746 1.43414
lowerneck -13.4823 1.37533 0.410415
upperneck 11.5261 2.66178 -6.17062
head 5.79552 0.839587 -1.78213
rclavicle 2.88238e-015 3.18055e-015
rhumerus -21.1664 11.2833 -80.2254
rradius 41.6701
rwrist -5.53329
rhand -25.3442 38.3504
rfingers 7.12502
rthumb 1.17913 8.37395
lclavicle 2.88238e-015 3.18055e-015
lhumerus -20.1632 -17.909 81.8496
lradius 79.529
lwrist 20.3542
lhand -30.275 21.1464
lfingers 7.12502
lthumb -3.58302 51.096
rfemur -21.6654 3.10051 19.9475
rtibia 37.8116
rfoot -16.5167 -14.5784
rtoes 12.9672
lfemur -23.7035 -0.686173 -13.1837
ltibia 40.017
lfoot -19.7377 5.82372
ltoes -14.9708
153
root 7.71621 17.9587 -7.20509 2.17203 -6.12272 2.24187
lowerback 5.36033 0.210799 -0.735115
upperback 2.37455 0.252483 1.05735
thorax -0.572146 0.11574 1.48315
lowerneck -13.4773 1.49932 0.593869
upperneck 11.1725 2.78113 -6.22368
head 5.69053 0.909838 -1.81693
rclavicle 7.95139e-015 -7.95139e-016
rhumerus -21.9111 10.6921 -80.0162
rradius 40.9806
rwrist -5.13776
rhand -24.9716 38.4979
rfingers 7.12502
rthumb 1.53899 8.52366
lclavicle 7.95139e-015 -7.95139e-016
lhumerus -21.9406 -17.3594 82.4775
lradius 78.9148
lwrist 20.3944
lhand -28.1535 21.7172
lfingers 7.12502
lthumb -1.53413 51.6914
rfemur -21.2878 3.121 20.2858
rtibia 37.7245
rfoot -16.4353 -14.7882
rtoes 13.3928
lfemur -23.4834 -0.0531772 -13.1342
ltibia 40.8413
lfoot -19.9952 6.26507
ltoes -15.5844
154
root 7.69435 17.9624 -7.21297 1.83898 -6.10847 1.78724
lowerback 5.58733 0.205491 -0.409843
upperback 2.55056 0.261735 1.25322
thorax -0.517435 0.120167 1.50098
lowerneck -13.333 1.70374 0.889979
upperneck 10.8341 2.99677 -6.34583
head 5.57371 1.02858 -1.88418
rclavicle -1.90833e-014 -6.36111e-015
rhumerus -22.6544 10.1992 -79.8643
rradius 40.0918
rwrist -4.78519
rhand -24.7377 38.2104
rfingers 7.12502
rthumb 1.76485 8.23791
lclavicle -1.90833e-014 -6.36111e-015
lhumerus -23.7041 -16.524 82.995
lradius 78.1102
lwrist 20.0882
lhand -29.4725 22.0336
lfingers 7.12502
lthumb -2.80808 51.9949
rfemur -20.7328 3.2488 20.8844
rtibia 37.5773
rfoot -16.5927 -14.8972
rtoes 13.666
lfemur -23.1222 0.130325 -12.8379
ltibia 41.7031
lfoot -20.5016 7.18788
ltoes -15.2808
155
root 7.67416 17.9751 -7.22554 1.6474 -6.00259 1.54078
lowerback 5.92972 0.222554 -0.1537
upperback 2.5108 0.300147 1.31216
thorax -0.748848 0.141792 1.41442
lowerneck -13.2886 1.70685 1.49752
upperneck 11.0231 2.9607 -6.81128
head 5.64003 0.999217 -2.13475
rclavicle -4.47266e-015 0
rhumerus -23.7728 9.48049 -79.7228
rradius 39.4239
rwrist -4.42107
rhand -24.0831 37.8807
rfingers 7.12502
rthumb 2.39709 7.91438
lclavicle -4.47266e-015 0
lhumerus -25.7976 -15.6297 83.4648
lradius 77.3852
lwrist 19.2937
lhand -27.2916 23.3346
lfingers 7.12502
lthumb -0.701689 53.3132
rfemur -20.403 3.20515 21.2429
rtibia 37.3937
rfoot -16.6598 -15.0514
rtoes 13.1019
lfemur -22.9433 0.579575 -12.8655
ltibia 42.6167
lfoot -20.9553 8.08476
ltoes -16.2946
156
root 7.65682 17.9758 -7.23977 1.66489 -5.85634 1.64886
lowerback 6.03964 0.211999 -0.22244
upperback 2.42179 0.283349 1.26257
thorax -0.901075 0.134251 1.40276
lowerneck -13.321 1.64645 1.90845
upperneck 11.2349 2.8471 -7.05358
head 5.71592 0.938675 -2.29004
rclavicle -1.59028e-015 -1.27222e-014
rhumerus -25.0005 8.65777 -79.5955
rradius 39.1108
rwrist -3.9521
rhand -23.6262 37.8122
rfingers 7.12502
rthumb 2.83834 7.85135
lclavicle -1.59028e-015 -1.27222e-014
lhumerus -27.8559 -14.8188 83.9094
lradius 76.6832
lwrist 18.5064
lhand -27.3672 22.3732
lfingers 7.12502
lthumb -0.774708 52.3516
rfemur -20.425 2.98965 21.1714
rtibia 37.2321
rfoot -16.7339 -15.011
rtoes 13.2438
lfemur -23.0301 1.42106 -13.2964
ltibia 43.5653
lfoot -21.1206 8.30544
ltoes -16.2595
157
root 7.64296 17.9746 -7.25121 1.78437 -5.66757 1.77733
lowerback 5.87259 0.199194 -0.294388
upperback 2.36989 0.262775 1.29259
thorax -0.861423 0.123688 1.47568
lowerneck -12.9267 1.62132 1.68862
upperneck 10.912 2.80672 -6.84972
head 5.54013 0.939038 -2.19243
rclavicle 2.38542e-015 6.36111e-015
rhumerus -26.1613 7.98405 -79.3024
rradius 38.7393
rwrist -3.67148
rhand -24.0752 38.0609
rfingers 7.12502
rthumb 2.40477 8.0947
lclavicle 2.38542e-015 6.36111e-015
lhumerus -29.5346 -14.2459 84.4835
lradius 75.8132
lwrist 18.1174
lhand -28.3606 22.362
lfingers 7.12502
lthumb -1.73422 52.3347
rfemur -20.5258 2.77046 21.0239
rtibia 37.1787
rfoot -17.2114 -14.7448
rtoes 14.1078
lfemur -23.2527 2.00434 -13.6769
ltibia 44.5192
lfoot -21.4323 7.89613
ltoes -12.6717
158
root 7.62986 17.9851 -7.25871 1.86917 -5.51712 1.73696
lowerback 5.67941 0.200162 -0.188448
upperback 2.33683 0.270261 1.36729
thorax -0.788062 0.127542 1.4928
lowerneck -12.6335 1.61708 1.4824
upperneck 10.6965 2.79711 -6.63923
head 5.41694 0.950994 -2.09302
rclavicle -1.09332e-015 7.15625e-015
rhumerus -27.3368 7.2165 -78.9606
rradius 38.4079
rwrist -3.4331
rhand -24.4494 37.7587
rfingers 7.12502
rthumb 2.0433 7.78878
lclavicle -1.09332e-015 7.15625e-015
lhumerus -30.879 -13.7966 84.9474
lradius 74.65
lwrist 18.0441
lhand -29.3321 22.7094
lfingers 7.12502
lthumb -2.67245 52.6724
rfemur -20.5648 2.6479 21.075
rtibia 37.2109
rfoot -17.7161 -14.6573
rtoes 13.9261
lfemur -23.413 2.60025 -13.9267
ltibia 45.4795
lfoot -21.3972 8.14317
ltoes -13.2541
159
root 7.62028 17.9859 -7.2651 1.88682 -5.38784 1.86461
lowerback 5.55265 0.0914932 -0.33701
upperback 2.34886 0.117223 1.35368
thorax -0.701174 0.0500019 1.57185
lowerneck -12.8359 1.76829 1.74802
upperneck 10.8813 2.96698 -6.661
head 5.51972 1.03579 -2.12873
rclavicle -3.67752e-015 3.81667e-014
rhumerus -28.3369 6.61004 -78.8231
rradius 38.1883
rwrist -3.09538
rhand -24.0487 36.8451
rfingers 7.12502
rthumb 2.43037 6.87921
lclavicle -3.67752e-015 3.81667e-014
lhumerus -32.164 -12.7708 85.0562
lradius 73.3025
lwrist 17.7286
lhand -29.3754 23.2105
lfingers 7.12502
lthumb -2.71429 53.1729
rfemur -20.5856 2.42397 20.9411
rtibia 37.2314
rfoot -18.0463 -14.5017
rtoes 13.4201
lfemur -23.4152 3.38913 -14.4689
ltibia 46.4471
lfoot -21.0282 8.77457
ltoes -16.4358
160
root 7.61303 17.9784 -7.27201 1.85416 -5.259 1.97773
lowerback 5.51318 -0.0123524 -0.459022
upperback 2.38958 -0.0277037 1.34475
thorax -0.6329 -0.0235845 1.63987
lowerneck -12.9674 1.8911 2.04269
upperneck 10.9801 3.10756 -6.83205
head 5.58617 1.09979 -2.21864
rclavicle -1.26228e-014 3.18055e-014
rhumerus -29.1313 6.41851 -78.7269
rradius 37.6624
rwrist -3.07874
rhand -23.8107 36.5841
rfingers 7.12502
rthumb 2.66018 6.62095
lclavicle -1.26228e-014 3.18055e-014
lhumerus -33.4313 -11.5952 85.1106
lradius 72.0614
lwrist 17.2528
lhand -28.9165 23.24
lfingers 7.12502
lthumb -2.27104 53.2077
rfemur -20.5542 2.12359 20.8045
rtibia 37.2385
rfoot -18.4818 -14.1336
rtoes 13.5502
lfemur -23.2883 3.9734 -14.9363
ltibia 47.3775
lfoot -20.9911 8.64953
ltoes -16.2313
